<svg xmlns="http://www.w3.org/2000/svg" width="512" height="512" viewBox="0 0 512 512">
  <rect width="512" height="512" rx="128" fill="#3f51b5" />
  <g transform="translate(104, 100)">
    <!-- Shoe silhouette -->
    <path d="M28,188 C40,185 75,174 85,168 C95,162 122,140 140,132 C158,124 188,110 210,110 C232,110 260,118 278,126 C296,134 305,149 310,162 C315,175 318,198 314,208 C310,218 290,232 276,238 C262,244 232,252 208,256 C184,260 136,262 112,258 C88,254 52,242 40,234 C28,226 16,191 28,188 Z" fill="#ffffff" />
    <!-- Shoe details -->
    <path d="M210,110 C188,110 158,124 140,132 C122,140 95,162 85,168 C75,174 40,185 28,188 C16,191 28,226 40,234 C52,242 88,254 112,258 C136,262 184,260 208,256 C232,252 262,244 276,238 C290,232 310,218 314,208 C318,198 315,175 310,162 C305,149 296,134 278,126 C260,118 232,110 210,110 Z M208,236 C184,240 136,242 112,238 C94.3,235.3 66.7,226.9 52.5,220.5" stroke="#000000" stroke-width="6" fill="none" />
    <!-- Laces -->
    <line x1="140" y1="132" x2="180" y2="150" stroke="#000000" stroke-width="4" />
    <line x1="150" y1="142" x2="190" y2="160" stroke="#000000" stroke-width="4" />
    <line x1="160" y1="152" x2="200" y2="170" stroke="#000000" stroke-width="4" />
    <line x1="170" y1="162" x2="210" y2="180" stroke="#000000" stroke-width="4" />
    <!-- Shoe sole -->
    <path d="M40,234 C52,242 88,254 112,258 C136,262 184,260 208,256 C232,252 262,244 276,238 C290,232 300,226 304,222" stroke="#000000" stroke-width="8" fill="none" />
  </g>
</svg> 